<?xml version="1.0" encoding="utf-8"?>
<!-- Generator: Adobe Illustrator 16.0.0, SVG Export Plug-In . SVG Version: 6.00 Build 0)  -->
<!DOCTYPE svg PUBLIC "-//W3C//DTD SVG 1.1//EN" "http://www.w3.org/Graphics/SVG/1.1/DTD/svg11.dtd">
<svg version="1.1" id="Layer_1" xmlns="http://www.w3.org/2000/svg" xmlns:xlink="http://www.w3.org/1999/xlink" x="0px" y="0px"
	 width="192.102px" height="29.606px" viewBox="0 0 192.102 29.606" enable-background="new 0 0 192.102 29.606"
	 xml:space="preserve">
<g>
	<g>
		<polygon fill="#FFFFFF" points="0,29.421 11.468,0.475 21.572,0.475 10.267,29.365 		"/>
		<polygon fill="#FFFFFF" points="17.094,14.238 22.882,29.421 33.15,29.421 22.118,1.568 		"/>
		<rect x="35.662" y="9.377" fill="#FFFFFF" width="10.266" height="19.988"/>
		<rect x="35.662" y="0.475" fill="#FFFFFF" width="10.266" height="8.058"/>
	</g>
	<g>
		<path fill="#FFFFFF" d="M69.395,13.645h-5.73l-1.103,2.78h-4.414l6.154-16h4.541l6.027,16h-4.436L69.395,13.645z M68.27,10.462
			l-1.697-5.093H66.53l-1.719,5.093H68.27z"/>
		<path fill="#FFFFFF" d="M79.347,16.425v-16h4.159l7.619,9.783h0.042V0.424h4.16v16h-4.16l-7.618-9.804h-0.042v9.804H79.347z"/>
		<path fill="#FFFFFF" d="M107.591,3.947v12.478h-4.158V3.947h-3.438V0.424h11.034v3.523H107.591z"/>
		<path fill="#FFFFFF" d="M126.159,1.315l-1.654,3.226c-0.849-0.707-1.769-1.061-2.758-1.061c-0.439,0-0.846,0.12-1.221,0.36
			c-0.375,0.241-0.562,0.566-0.562,0.976c0,0.284,0.117,0.538,0.351,0.764c0.232,0.227,0.451,0.382,0.657,0.467
			s0.484,0.184,0.839,0.297l1.061,0.318c1.244,0.368,2.214,0.888,2.906,1.56c0.694,0.672,1.041,1.609,1.041,2.812
			c0,1.938-0.551,3.375-1.655,4.308c-1.188,1.004-2.703,1.506-4.542,1.506c-2.008,0-3.882-0.607-5.622-1.825l1.781-3.353
			c1.26,1.104,2.49,1.656,3.692,1.656c0.538,0,1.009-0.138,1.412-0.414c0.402-0.276,0.604-0.676,0.604-1.199
			c0-0.722-0.674-1.28-2.017-1.676c-0.043-0.014-0.212-0.064-0.509-0.149c-0.765-0.212-1.365-0.41-1.804-0.594
			c-0.439-0.184-0.877-0.442-1.315-0.775c-0.439-0.332-0.749-0.753-0.934-1.263c-0.186-0.509-0.276-1.138-0.276-1.888
			c0-1.613,0.517-2.911,1.55-3.895C118.215,0.492,119.539,0,121.151,0c0.808,0,1.666,0.12,2.579,0.36
			C124.643,0.602,125.452,0.92,126.159,1.315z"/>
		<path fill="#FFFFFF" d="M136.134,0.424v16h-4.16v-16H136.134z"/>
		<path fill="#FFFFFF" d="M146.234,7.024l5.03-6.6h5.156L150.054,8l6.939,8.425h-5.39l-5.37-6.939h-0.043v6.939h-4.158v-16h4.158
			v6.6H146.234z"/>
		<path fill="#FFFFFF" d="M171.02,0.424h4.159v8.998c0,1.302-0.104,2.395-0.308,3.279c-0.206,0.884-0.662,1.673-1.369,2.366
			c-1.202,1.188-2.971,1.782-5.305,1.782c-2.335,0-4.103-0.594-5.306-1.782c-0.707-0.693-1.163-1.482-1.369-2.366
			c-0.204-0.884-0.306-1.977-0.306-3.279V0.424h4.158v8.425c0,0.509,0.011,0.934,0.031,1.273c0.022,0.34,0.085,0.722,0.191,1.146
			c0.105,0.424,0.254,0.764,0.445,1.019c0.19,0.255,0.471,0.471,0.839,0.647c0.367,0.177,0.807,0.266,1.315,0.266
			c0.508,0,0.948-0.088,1.315-0.266c0.367-0.176,0.647-0.392,0.839-0.647c0.19-0.254,0.339-0.594,0.445-1.019
			c0.105-0.424,0.17-0.806,0.19-1.146c0.021-0.339,0.032-0.764,0.032-1.273V0.424z"/>
		<path fill="#FFFFFF" d="M191.434,1.315l-1.655,3.226c-0.848-0.707-1.769-1.061-2.757-1.061c-0.44,0-0.847,0.12-1.222,0.36
			c-0.375,0.241-0.562,0.566-0.562,0.976c0,0.284,0.116,0.538,0.349,0.764c0.233,0.227,0.454,0.382,0.658,0.467
			c0.206,0.085,0.484,0.184,0.839,0.297l1.062,0.318c1.243,0.368,2.214,0.888,2.907,1.56c0.692,0.672,1.039,1.609,1.039,2.812
			c0,1.938-0.553,3.375-1.655,4.308c-1.188,1.004-2.703,1.506-4.542,1.506c-2.008,0-3.884-0.607-5.624-1.825l1.783-3.353
			c1.26,1.104,2.49,1.656,3.692,1.656c0.538,0,1.008-0.138,1.412-0.414c0.402-0.276,0.605-0.676,0.605-1.199
			c0-0.722-0.672-1.28-2.018-1.676c-0.042-0.014-0.211-0.064-0.508-0.149c-0.765-0.212-1.366-0.41-1.804-0.594
			c-0.44-0.184-0.878-0.442-1.315-0.775c-0.44-0.332-0.752-0.753-0.936-1.263s-0.274-1.138-0.274-1.888
			c0-1.613,0.516-2.911,1.549-3.895C183.491,0.492,184.813,0,186.426,0c0.807,0,1.666,0.12,2.579,0.36
			C189.917,0.602,190.727,0.92,191.434,1.315z"/>
	</g>
	<g>
		<path fill="#FFFFFF" d="M59.529,21.566v7.723h-0.962v-7.723H59.529z"/>
		<path fill="#FFFFFF" d="M66.699,29.289v-8.09l5.796,6.072v-5.705h0.963v8.04l-5.796-6.073v5.756H66.699z"/>
		<path fill="#FFFFFF" d="M84.375,22.448H81.6v2.171h2.683V25.5H81.6v3.789h-0.963v-7.723h3.738V22.448z"/>
		<path fill="#FFFFFF" d="M91.969,22.586c0.794-0.788,1.746-1.183,2.852-1.183c1.106,0,2.057,0.395,2.853,1.183
			c0.794,0.789,1.193,1.736,1.193,2.842c0,1.142-0.394,2.097-1.179,2.868s-1.74,1.156-2.867,1.156s-2.083-0.385-2.868-1.156
			c-0.785-0.771-1.178-1.727-1.178-2.868C90.775,24.322,91.173,23.375,91.969,22.586z M92.65,27.646
			c0.607,0.604,1.331,0.906,2.171,0.906s1.562-0.302,2.17-0.906c0.608-0.604,0.912-1.344,0.912-2.218
			c0-0.866-0.291-1.604-0.875-2.212c-0.584-0.607-1.319-0.911-2.207-0.911c-0.889,0-1.624,0.304-2.207,0.911
			c-0.583,0.608-0.876,1.346-0.876,2.212C91.738,26.302,92.042,27.041,92.65,27.646z"/>
		<path fill="#FFFFFF" d="M107.981,25.931l2.436,3.358h-1.167l-2.272-3.268h-0.399v3.268h-0.963v-7.723h1.167
			c0.294,0,0.531,0.006,0.713,0.016c0.18,0.011,0.398,0.044,0.655,0.098c0.256,0.055,0.479,0.138,0.67,0.246
			c0.315,0.185,0.562,0.444,0.743,0.778c0.181,0.334,0.271,0.69,0.271,1.065c0,0.56-0.171,1.042-0.513,1.448
			C108.981,25.625,108.534,25.862,107.981,25.931z M106.578,22.428v2.796h0.307c0.28,0,0.526-0.018,0.742-0.052
			c0.215-0.033,0.429-0.097,0.64-0.189c0.212-0.093,0.377-0.237,0.492-0.435c0.117-0.198,0.174-0.444,0.174-0.738
			c0-0.921-0.699-1.382-2.099-1.382H106.578z"/>
		<path fill="#FFFFFF" d="M120.619,29.452l-2.315-5.264h-0.021l-0.9,5.101h-0.994l1.577-8.049l2.653,6.082l2.651-6.082l1.577,8.049
			h-0.992l-0.902-5.101h-0.021L120.619,29.452z"/>
		<path fill="#FFFFFF" d="M136.164,27.354h-3.544l-0.881,1.936h-1.034l3.688-8.049l3.687,8.049h-1.035L136.164,27.354z
			 M135.765,26.473l-1.373-3.123l-1.371,3.123H135.765z"/>
		<path fill="#FFFFFF" d="M145.801,22.448v6.841h-0.963v-6.841h-1.833v-0.882h4.629v0.882H145.801z"/>
		<path fill="#FFFFFF" d="M155.14,21.566v7.723h-0.961v-7.723H155.14z"/>
		<path fill="#FFFFFF" d="M168.023,21.926v1.116c-0.565-0.505-1.245-0.758-2.037-0.758c-0.854,0-1.575,0.309-2.166,0.927
			c-0.59,0.617-0.887,1.359-0.887,2.229c0,0.854,0.293,1.588,0.876,2.206c0.585,0.617,1.303,0.927,2.156,0.927
			c0.779,0,1.464-0.267,2.058-0.799v1.137c-0.614,0.362-1.289,0.542-2.026,0.542c-1.105,0-2.054-0.385-2.843-1.156
			c-0.788-0.771-1.182-1.714-1.182-2.827c0-1.14,0.399-2.103,1.198-2.888c0.798-0.784,1.767-1.178,2.908-1.178
			C166.808,21.403,167.458,21.578,168.023,21.926z"/>
		<path fill="#FFFFFF" d="M174.855,21.566h0.963v4.559c0,1.617,0.62,2.427,1.863,2.427s1.864-0.81,1.864-2.427v-4.559h0.962v4.886
			c0,0.874-0.255,1.593-0.763,2.156c-0.509,0.562-1.195,0.844-2.063,0.844c-0.867,0-1.555-0.281-2.063-0.844
			c-0.509-0.563-0.763-1.282-0.763-2.156V21.566z"/>
		<path fill="#FFFFFF" d="M191.855,22.57l-0.768,0.462c-0.288-0.485-0.7-0.728-1.24-0.728c-0.328,0-0.625,0.103-0.891,0.307
			c-0.267,0.206-0.398,0.468-0.398,0.788c0,0.465,0.357,0.833,1.074,1.106l0.553,0.215c0.614,0.239,1.088,0.536,1.42,0.892
			c0.33,0.355,0.497,0.833,0.497,1.434c0,0.696-0.237,1.271-0.713,1.726c-0.475,0.455-1.062,0.681-1.757,0.681
			c-0.622,0-1.154-0.202-1.598-0.608s-0.707-0.924-0.789-1.552l0.975-0.205c-0.008,0.417,0.134,0.766,0.425,1.044
			c0.289,0.28,0.646,0.421,1.068,0.421c0.41,0,0.75-0.148,1.02-0.445c0.271-0.298,0.406-0.65,0.406-1.061
			c0-0.375-0.119-0.67-0.354-0.885c-0.236-0.216-0.561-0.408-0.979-0.579l-0.532-0.226c-0.525-0.226-0.937-0.485-1.233-0.778
			s-0.445-0.687-0.445-1.179c0-0.599,0.225-1.083,0.675-1.449c0.451-0.364,0.983-0.547,1.598-0.547
			C190.756,21.403,191.417,21.793,191.855,22.57z"/>
	</g>
</g>
</svg>
