<?xml version="1.0" encoding="utf-8"?>
<!-- Generator: Adobe Illustrator 16.0.0, SVG Export Plug-In . SVG Version: 6.00 Build 0)  -->
<!DOCTYPE svg PUBLIC "-//W3C//DTD SVG 1.1//EN" "http://www.w3.org/Graphics/SVG/1.1/DTD/svg11.dtd">
<svg version="1.1" id="Layer_1" xmlns="http://www.w3.org/2000/svg" xmlns:xlink="http://www.w3.org/1999/xlink" x="0px" y="0px"
	 width="177.01px" height="27.281px" viewBox="0 0 177.01 27.281" enable-background="new 0 0 177.01 27.281" xml:space="preserve">
<g>
	<g>
		<polygon fill="#00ADE0" points="0,27.109 10.567,0.438 19.877,0.438 9.461,27.058 		"/>
		<polygon fill="#00588B" points="15.75,13.12 21.085,27.109 30.546,27.109 20.381,1.444 		"/>
		<rect x="32.86" y="8.64" fill="#00588B" width="9.46" height="18.42"/>
		<rect x="32.86" y="0.438" fill="#00ADE0" width="9.46" height="7.424"/>
	</g>
	<g>
		<path fill="#00588B" d="M63.943,12.573h-5.28l-1.016,2.562H53.58l5.67-14.744h4.185l5.553,14.744h-4.086L63.943,12.573z
			 M62.907,9.64l-1.564-4.692h-0.039L59.72,9.64H62.907z"/>
		<path fill="#00588B" d="M73.113,15.135V0.391h3.833l7.02,9.014h0.04V0.391h3.833v14.744h-3.833l-7.021-9.034h-0.039v9.034H73.113z
			"/>
		<path fill="#00588B" d="M99.14,3.637v11.498h-3.833V3.637h-3.168V0.391h10.168v3.246H99.14z"/>
		<path fill="#00588B" d="M116.248,1.212l-1.522,2.972c-0.783-0.652-1.63-0.978-2.543-0.978c-0.404,0-0.779,0.111-1.124,0.332
			c-0.347,0.222-0.52,0.522-0.52,0.9c0,0.261,0.107,0.495,0.323,0.704c0.216,0.209,0.418,0.353,0.607,0.431
			c0.188,0.078,0.444,0.169,0.772,0.273l0.977,0.293c1.147,0.339,2.041,0.818,2.679,1.437c0.639,0.619,0.958,1.483,0.958,2.591
			c0,1.785-0.509,3.109-1.525,3.969c-1.094,0.926-2.49,1.388-4.184,1.388c-1.852,0-3.58-0.56-5.182-1.682l1.643-3.089
			c1.16,1.017,2.294,1.524,3.402,1.524c0.494,0,0.929-0.126,1.301-0.38c0.37-0.253,0.558-0.622,0.558-1.104
			c0-0.665-0.621-1.18-1.858-1.545c-0.04-0.013-0.196-0.059-0.471-0.137c-0.704-0.196-1.257-0.378-1.661-0.548
			c-0.404-0.169-0.809-0.407-1.213-0.713c-0.404-0.307-0.691-0.694-0.859-1.164c-0.171-0.47-0.256-1.049-0.256-1.74
			c0-1.486,0.477-2.683,1.428-3.589C108.928,0.453,110.148,0,111.635,0c0.743,0,1.534,0.11,2.375,0.333
			C114.85,0.554,115.597,0.848,116.248,1.212z"/>
		<path fill="#00588B" d="M125.438,0.391v14.744h-3.832V0.391H125.438z"/>
		<path fill="#00588B" d="M134.746,6.472l4.635-6.081h4.752l-5.867,6.981l6.396,7.763h-4.967l-4.948-6.395h-0.038v6.395h-3.832
			V0.391h3.832v6.081H134.746z"/>
		<path fill="#00588B" d="M157.585,0.391h3.832v8.291c0,1.2-0.094,2.207-0.283,3.021c-0.189,0.815-0.61,1.542-1.262,2.181
			c-1.108,1.095-2.737,1.642-4.888,1.642c-2.151,0-3.781-0.547-4.888-1.642c-0.653-0.64-1.073-1.366-1.262-2.181
			c-0.19-0.814-0.283-1.821-0.283-3.021V0.391h3.832v7.763c0,0.469,0.009,0.86,0.028,1.173c0.021,0.313,0.078,0.665,0.176,1.056
			s0.236,0.704,0.411,0.938c0.177,0.234,0.434,0.434,0.771,0.596c0.34,0.164,0.743,0.245,1.214,0.245
			c0.468,0,0.872-0.081,1.213-0.245c0.338-0.162,0.596-0.362,0.771-0.596c0.176-0.235,0.313-0.547,0.409-0.938
			c0.098-0.391,0.158-0.743,0.177-1.056s0.03-0.704,0.03-1.173V0.391z"/>
		<path fill="#00588B" d="M176.395,1.212l-1.525,2.972c-0.781-0.652-1.628-0.978-2.541-0.978c-0.404,0-0.778,0.111-1.126,0.332
			c-0.345,0.222-0.517,0.522-0.517,0.9c0,0.261,0.106,0.495,0.321,0.704c0.218,0.209,0.42,0.353,0.606,0.431
			c0.19,0.078,0.447,0.169,0.772,0.273l0.979,0.293c1.146,0.339,2.038,0.818,2.679,1.437c0.639,0.619,0.957,1.483,0.957,2.591
			c0,1.785-0.509,3.109-1.524,3.969c-1.094,0.926-2.49,1.388-4.185,1.388c-1.852,0-3.579-0.56-5.184-1.682l1.646-3.089
			c1.16,1.017,2.293,1.524,3.399,1.524c0.496,0,0.93-0.126,1.301-0.38c0.372-0.253,0.558-0.622,0.558-1.104
			c0-0.665-0.62-1.18-1.858-1.545c-0.037-0.013-0.193-0.059-0.468-0.137c-0.704-0.196-1.258-0.378-1.661-0.548
			c-0.404-0.169-0.81-0.407-1.214-0.713c-0.404-0.307-0.691-0.694-0.859-1.164c-0.17-0.47-0.256-1.049-0.256-1.74
			c0-1.486,0.477-2.683,1.429-3.589C169.076,0.453,170.294,0,171.78,0c0.744,0,1.537,0.11,2.377,0.333
			C174.998,0.554,175.744,0.848,176.395,1.212z"/>
	</g>
	<g>
		<path fill="#00ADE0" d="M54.853,19.875v7.113h-0.887v-7.113H54.853z"/>
		<path fill="#00ADE0" d="M61.459,26.988v-7.455L66.8,25.13v-5.256h0.888v7.406l-5.342-5.596v5.303H61.459z"/>
		<path fill="#00ADE0" d="M77.746,20.685h-2.557v2.002h2.472v0.811h-2.472v3.49h-0.887v-7.113h3.444V20.685z"/>
		<path fill="#00ADE0" d="M84.744,20.812c0.732-0.727,1.609-1.09,2.628-1.09c1.019,0,1.896,0.363,2.628,1.09s1.098,1.6,1.098,2.619
			c0,1.051-0.361,1.932-1.084,2.643c-0.724,0.711-1.604,1.066-2.642,1.066c-1.038,0-1.919-0.355-2.643-1.066
			c-0.723-0.711-1.085-1.592-1.085-2.643C83.644,22.412,84.01,21.539,84.744,20.812z M85.371,25.472
			c0.561,0.559,1.226,0.838,2.001,0.838c0.772,0,1.441-0.279,2-0.838c0.561-0.555,0.84-1.236,0.84-2.041
			c0-0.801-0.268-1.479-0.807-2.039c-0.538-0.561-1.215-0.84-2.033-0.84c-0.819,0-1.495,0.279-2.034,0.84
			c-0.538,0.561-0.807,1.238-0.807,2.039C84.531,24.236,84.812,24.917,85.371,25.472z"/>
		<path fill="#00ADE0" d="M99.498,23.894l2.247,3.094h-1.077l-2.096-3.01h-0.368v3.01h-0.885v-7.113h1.074
			c0.271,0,0.489,0.004,0.655,0.012c0.168,0.01,0.369,0.041,0.604,0.092c0.236,0.049,0.442,0.125,0.619,0.227
			c0.29,0.168,0.518,0.408,0.683,0.717c0.166,0.309,0.252,0.635,0.252,0.98c0,0.516-0.157,0.961-0.473,1.336
			C100.418,23.611,100.006,23.83,99.498,23.894z M98.204,20.666v2.576h0.283c0.26,0,0.487-0.016,0.686-0.047s0.395-0.09,0.59-0.176
			c0.195-0.084,0.346-0.217,0.453-0.4c0.105-0.182,0.161-0.408,0.161-0.68c0-0.85-0.646-1.273-1.936-1.273H98.204z"/>
		<path fill="#00ADE0" d="M111.143,27.14l-2.134-4.852h-0.02l-0.829,4.699h-0.915l1.453-7.416l2.444,5.604l2.443-5.604l1.453,7.416
			h-0.914l-0.831-4.699h-0.019L111.143,27.14z"/>
		<path fill="#00ADE0" d="M125.466,25.205h-3.264l-0.813,1.783h-0.953l3.398-7.416l3.397,7.416h-0.952L125.466,25.205z
			 M125.098,24.394l-1.264-2.879l-1.265,2.879H125.098z"/>
		<path fill="#00ADE0" d="M134.346,20.685v6.303h-0.888v-6.303h-1.688v-0.811h4.265v0.811H134.346z"/>
		<path fill="#00ADE0" d="M142.954,19.875v7.113h-0.887v-7.113H142.954z"/>
		<path fill="#00ADE0" d="M154.825,20.205v1.027c-0.523-0.467-1.149-0.699-1.879-0.699c-0.785,0-1.451,0.285-1.996,0.855
			c-0.543,0.568-0.814,1.252-0.814,2.051c0,0.787,0.269,1.467,0.807,2.033c0.538,0.572,1.199,0.855,1.985,0.855
			c0.717,0,1.349-0.246,1.897-0.736v1.047c-0.566,0.334-1.189,0.502-1.868,0.502c-1.019,0-1.892-0.355-2.619-1.066
			c-0.729-0.711-1.089-1.58-1.089-2.604c0-1.053,0.367-1.939,1.104-2.664c0.736-0.723,1.628-1.084,2.68-1.084
			C153.704,19.722,154.301,19.882,154.825,20.205z"/>
		<path fill="#00ADE0" d="M161.119,19.875h0.888v4.197c0,1.492,0.57,2.238,1.718,2.238c1.145,0,1.717-0.746,1.717-2.238v-4.197
			h0.885v4.5c0,0.805-0.233,1.469-0.702,1.986c-0.468,0.52-1.102,0.779-1.899,0.779c-0.8,0-1.435-0.26-1.903-0.779
			c-0.468-0.518-0.702-1.182-0.702-1.986V19.875z"/>
		<path fill="#00ADE0" d="M176.783,20.798l-0.706,0.424c-0.267-0.445-0.646-0.67-1.143-0.67c-0.303,0-0.575,0.094-0.822,0.283
			c-0.244,0.189-0.367,0.432-0.367,0.727c0,0.428,0.329,0.768,0.991,1.02l0.509,0.197c0.565,0.221,1.002,0.494,1.309,0.822
			c0.304,0.326,0.457,0.766,0.457,1.32c0,0.643-0.219,1.172-0.655,1.59c-0.438,0.418-0.979,0.629-1.619,0.629
			c-0.572,0-1.064-0.188-1.473-0.562c-0.409-0.373-0.651-0.852-0.726-1.43l0.896-0.189c-0.007,0.385,0.122,0.705,0.392,0.963
			c0.267,0.258,0.595,0.389,0.984,0.389c0.379,0,0.691-0.137,0.94-0.412c0.249-0.273,0.373-0.6,0.373-0.977
			c0-0.344-0.108-0.617-0.326-0.814c-0.217-0.199-0.517-0.377-0.902-0.535l-0.489-0.207c-0.485-0.207-0.864-0.447-1.139-0.717
			c-0.271-0.271-0.41-0.633-0.41-1.086c0-0.553,0.208-0.998,0.623-1.336c0.415-0.336,0.906-0.504,1.473-0.504
			C175.77,19.722,176.38,20.082,176.783,20.798z"/>
	</g>
</g>
</svg>
